<svg width="44" height="44" viewBox="0 0 44 44" fill="none" xmlns="http://www.w3.org/2000/svg">
<rect width="44" height="44" rx="4" fill="#077929"/>
<path d="M31.5756 15.5191C31.5052 15.4348 31.4172 15.3671 31.3177 15.3206C31.2183 15.2741 31.1098 15.25 31 15.25H15.8763L15.3062 12.1159C15.2749 11.9431 15.1838 11.7868 15.049 11.6743C14.9141 11.5617 14.7441 11.5 14.5684 11.5H12.25C12.0511 11.5 11.8603 11.579 11.7197 11.7197C11.579 11.8603 11.5 12.0511 11.5 12.25C11.5 12.4489 11.579 12.6397 11.7197 12.7803C11.8603 12.921 12.0511 13 12.25 13H13.9375L16.3337 26.1522C16.4043 26.5422 16.5767 26.9067 16.8334 27.2087C16.4791 27.5397 16.2234 27.9623 16.0946 28.4298C15.9657 28.8972 15.9689 29.3912 16.1037 29.8569C16.2385 30.3226 16.4997 30.7419 16.8582 31.0683C17.2168 31.3947 17.6587 31.6154 18.135 31.7059C18.6113 31.7965 19.1034 31.7533 19.5567 31.5813C20.01 31.4092 20.4068 31.115 20.7031 30.7312C20.9994 30.3474 21.1836 29.889 21.2353 29.407C21.287 28.9249 21.2041 28.4379 20.9959 28H25.2541C25.0863 28.3513 24.9995 28.7357 25 29.125C25 29.6442 25.154 30.1517 25.4424 30.5834C25.7308 31.0151 26.1408 31.3515 26.6205 31.5502C27.1001 31.7489 27.6279 31.8008 28.1371 31.6996C28.6463 31.5983 29.114 31.3483 29.4812 30.9812C29.8483 30.614 30.0983 30.1463 30.1996 29.6371C30.3008 29.1279 30.2489 28.6001 30.0502 28.1205C29.8515 27.6408 29.5151 27.2308 29.0834 26.9424C28.6517 26.654 28.1442 26.5 27.625 26.5H18.5472C18.3715 26.5 18.2015 26.4383 18.0667 26.3257C17.9318 26.2132 17.8408 26.0569 17.8094 25.8841L17.5122 24.25H28.3872C28.9141 24.2499 29.4243 24.0649 29.8288 23.7272C30.2333 23.3896 30.5064 22.9206 30.6006 22.4022L31.7406 16.1341C31.7599 16.0257 31.7551 15.9145 31.7266 15.8082C31.6981 15.7019 31.6466 15.6032 31.5756 15.5191ZM19.75 29.125C19.75 29.3475 19.684 29.565 19.5604 29.75C19.4368 29.935 19.2611 30.0792 19.0555 30.1644C18.85 30.2495 18.6238 30.2718 18.4055 30.2284C18.1873 30.185 17.9868 30.0778 17.8295 29.9205C17.6722 29.7632 17.565 29.5627 17.5216 29.3445C17.4782 29.1262 17.5005 28.9 17.5856 28.6945C17.6708 28.4889 17.815 28.3132 18 28.1896C18.185 28.066 18.4025 28 18.625 28C18.9234 28 19.2095 28.1185 19.4205 28.3295C19.6315 28.5405 19.75 28.8266 19.75 29.125ZM28.75 29.125C28.75 29.3475 28.684 29.565 28.5604 29.75C28.4368 29.935 28.2611 30.0792 28.0555 30.1644C27.85 30.2495 27.6238 30.2718 27.4055 30.2284C27.1873 30.185 26.9868 30.0778 26.8295 29.9205C26.6722 29.7632 26.565 29.5627 26.5216 29.3445C26.4782 29.1262 26.5005 28.9 26.5856 28.6945C26.6708 28.4889 26.815 28.3132 27 28.1896C27.185 28.066 27.4025 28 27.625 28C27.9234 28 28.2095 28.1185 28.4205 28.3295C28.6315 28.5405 28.75 28.8266 28.75 29.125ZM29.125 22.1341C29.0935 22.3074 29.0021 22.464 28.8666 22.5766C28.7312 22.6893 28.5605 22.7506 28.3844 22.75H17.2394L16.1491 16.75H30.1009L29.125 22.1341Z" fill="white"/>
</svg>
