<svg width="422" height="136" viewBox="0 0 422 136" fill="none" xmlns="http://www.w3.org/2000/svg">
<g filter="url(#filter0_dd_313_12727)">
<rect x="38" y="26" width="346" height="68" rx="4" fill="white" shape-rendering="crispEdges"/>
<rect x="38.5" y="26.5" width="345" height="67" rx="3.5" stroke="#077929" shape-rendering="crispEdges"/>
<path d="M79.7469 60.6778L76.0703 56.5666C75.2099 55.6001 73.7321 55.5183 72.7655 56.3786C71.7989 57.239 71.7172 58.7168 72.5776 59.6834L78.1746 65.9399C79.035 66.9064 80.5128 66.9882 81.4794 66.1278L93.3673 47.6484C93.3673 47.6484 94.0627 46.517 93.1908 45.9456C93.1908 45.9456 92.466 45.5032 91.7245 46.3585L79.7469 60.6778ZM92.2409 51.812L90.662 54.2806C91.5761 55.9821 92.1002 57.9267 92.1002 60.0003C92.1002 63.346 90.7451 66.3628 88.5539 68.5542C86.3627 70.7454 83.3405 72.1006 80 72.1006C76.6543 72.1006 73.6375 70.7455 71.4461 68.5542C69.2485 66.3631 67.8997 63.346 67.8997 60.0003C67.8997 56.6546 69.2548 53.6378 71.4461 51.4464C73.6372 49.2552 76.6543 47.9001 80 47.9001C82.5747 47.9001 84.9487 48.7016 86.9097 50.0682L88.601 48.042C86.1797 46.3033 83.205 45.2729 80 45.2729C75.9346 45.2729 72.2475 46.9221 69.5849 49.5851C66.9222 52.2481 65.2727 55.9348 65.2727 60.0002C65.2727 64.0656 66.9219 67.7527 69.5849 70.4153C72.2478 73.078 75.9346 74.7275 80 74.7275C84.0654 74.7275 87.7524 73.0783 90.4151 70.4153C93.0778 67.7524 94.7273 64.0656 94.7273 60.0002C94.7273 56.9717 93.8146 54.1569 92.2409 51.812Z" fill="#077929"/>
<path d="M132.928 57.348C132.86 56.7429 132.578 56.2741 132.084 55.9418C131.59 55.6051 130.968 55.4368 130.218 55.4368C129.681 55.4368 129.216 55.522 128.824 55.6925C128.432 55.8587 128.127 56.0888 127.91 56.3828C127.697 56.6726 127.59 57.0028 127.59 57.3736C127.59 57.6847 127.663 57.9531 127.808 58.179C127.957 58.4048 128.151 58.5945 128.389 58.7479C128.632 58.897 128.892 59.0227 129.169 59.125C129.446 59.223 129.713 59.304 129.968 59.3679L131.247 59.7003C131.664 59.8026 132.093 59.9411 132.531 60.1158C132.97 60.2905 133.377 60.5206 133.752 60.8061C134.127 61.0916 134.43 61.4453 134.66 61.8672C134.894 62.2891 135.012 62.794 135.012 63.3821C135.012 64.1236 134.82 64.782 134.436 65.3572C134.057 65.9325 133.505 66.3864 132.781 66.7188C132.061 67.0511 131.189 67.2173 130.166 67.2173C129.186 67.2173 128.338 67.0618 127.622 66.7507C126.906 66.4396 126.346 65.9986 125.941 65.4276C125.536 64.8523 125.313 64.1705 125.27 63.3821H127.252C127.29 63.8551 127.443 64.2493 127.712 64.5646C127.985 64.8757 128.332 65.108 128.754 65.2614C129.18 65.4105 129.646 65.4851 130.154 65.4851C130.712 65.4851 131.208 65.3977 131.643 65.223C132.082 65.044 132.427 64.7969 132.678 64.4815C132.93 64.1619 133.056 63.7891 133.056 63.3629C133.056 62.9751 132.945 62.6577 132.723 62.4105C132.506 62.1634 132.21 61.9588 131.835 61.7969C131.464 61.6349 131.044 61.4922 130.575 61.3686L129.029 60.9467C127.98 60.6612 127.149 60.2415 126.536 59.6875C125.926 59.1335 125.622 58.4006 125.622 57.4886C125.622 56.7344 125.826 56.076 126.235 55.5135C126.644 54.951 127.198 54.5142 127.897 54.2031C128.596 53.8878 129.384 53.7301 130.262 53.7301C131.149 53.7301 131.931 53.8857 132.608 54.1967C133.29 54.5078 133.827 54.9361 134.219 55.4815C134.611 56.0227 134.816 56.6449 134.833 57.348H132.928ZM143.438 62.9283V57.1818H145.355V67H143.476V65.2997H143.374C143.148 65.8239 142.786 66.2607 142.287 66.6101C141.793 66.9553 141.177 67.1278 140.44 67.1278C139.809 67.1278 139.251 66.9893 138.765 66.7124C138.284 66.4311 137.904 66.0156 137.627 65.4659C137.355 64.9162 137.218 64.2365 137.218 63.4268V57.1818H139.13V63.1967C139.13 63.8658 139.315 64.3984 139.686 64.7947C140.056 65.1911 140.538 65.3892 141.13 65.3892C141.488 65.3892 141.844 65.2997 142.198 65.1207C142.556 64.9418 142.852 64.6712 143.086 64.3089C143.325 63.9467 143.442 63.4865 143.438 62.9283ZM152.059 67.1982C151.109 67.1982 150.291 66.983 149.605 66.5526C148.923 66.1179 148.399 65.5192 148.032 64.7564C147.666 63.9936 147.482 63.12 147.482 62.1357C147.482 61.1385 147.67 60.2585 148.045 59.4957C148.42 58.7287 148.948 58.13 149.63 57.6996C150.312 57.2692 151.115 57.054 152.04 57.054C152.786 57.054 153.45 57.1925 154.034 57.4695C154.618 57.7422 155.089 58.1257 155.447 58.62C155.809 59.1143 156.024 59.6918 156.093 60.3523H154.232C154.13 59.892 153.896 59.4957 153.529 59.1634C153.167 58.831 152.681 58.6648 152.072 58.6648C151.539 58.6648 151.073 58.8054 150.672 59.0866C150.276 59.3636 149.967 59.7599 149.745 60.2756C149.524 60.7869 149.413 61.392 149.413 62.0909C149.413 62.8068 149.521 63.4247 149.739 63.9446C149.956 64.4645 150.263 64.8672 150.659 65.1527C151.06 65.4382 151.531 65.581 152.072 65.581C152.434 65.581 152.762 65.5149 153.056 65.3828C153.355 65.2464 153.604 65.0526 153.804 64.8011C154.009 64.5497 154.151 64.2472 154.232 63.8935H156.093C156.024 64.5284 155.818 65.0952 155.472 65.5938C155.127 66.0923 154.665 66.4844 154.085 66.7699C153.51 67.0554 152.835 67.1982 152.059 67.1982ZM162.272 67.1982C161.322 67.1982 160.504 66.983 159.817 66.5526C159.136 66.1179 158.612 65.5192 158.245 64.7564C157.879 63.9936 157.695 63.12 157.695 62.1357C157.695 61.1385 157.883 60.2585 158.258 59.4957C158.633 58.7287 159.161 58.13 159.843 57.6996C160.525 57.2692 161.328 57.054 162.253 57.054C162.999 57.054 163.663 57.1925 164.247 57.4695C164.831 57.7422 165.302 58.1257 165.66 58.62C166.022 59.1143 166.237 59.6918 166.305 60.3523H164.445C164.343 59.892 164.109 59.4957 163.742 59.1634C163.38 58.831 162.894 58.6648 162.285 58.6648C161.752 58.6648 161.286 58.8054 160.885 59.0866C160.489 59.3636 160.18 59.7599 159.958 60.2756C159.737 60.7869 159.626 61.392 159.626 62.0909C159.626 62.8068 159.734 63.4247 159.952 63.9446C160.169 64.4645 160.476 64.8672 160.872 65.1527C161.273 65.4382 161.744 65.581 162.285 65.581C162.647 65.581 162.975 65.5149 163.269 65.3828C163.567 65.2464 163.817 65.0526 164.017 64.8011C164.222 64.5497 164.364 64.2472 164.445 63.8935H166.305C166.237 64.5284 166.031 65.0952 165.685 65.5938C165.34 66.0923 164.878 66.4844 164.298 66.7699C163.723 67.0554 163.048 67.1982 162.272 67.1982ZM172.581 67.1982C171.613 67.1982 170.78 66.9915 170.081 66.5781C169.387 66.1605 168.85 65.5746 168.471 64.8203C168.096 64.0618 167.908 63.1733 167.908 62.1548C167.908 61.1491 168.096 60.2628 168.471 59.4957C168.85 58.7287 169.378 58.13 170.056 57.6996C170.738 57.2692 171.535 57.054 172.447 57.054C173.001 57.054 173.537 57.1456 174.057 57.3288C174.577 57.5121 175.044 57.7997 175.457 58.1918C175.871 58.5838 176.197 59.093 176.435 59.7195C176.674 60.3416 176.793 61.098 176.793 61.9886V62.6662H168.988V61.2344H174.92C174.92 60.7315 174.818 60.2862 174.613 59.8984C174.409 59.5064 174.121 59.1974 173.751 58.9716C173.384 58.7457 172.954 58.6328 172.459 58.6328C171.922 58.6328 171.454 58.7649 171.053 59.0291C170.657 59.2891 170.35 59.63 170.133 60.0518C169.92 60.4695 169.813 60.9233 169.813 61.4134V62.532C169.813 63.1882 169.928 63.7464 170.158 64.2067C170.393 64.6669 170.719 65.0185 171.136 65.2614C171.554 65.5 172.042 65.6193 172.6 65.6193C172.962 65.6193 173.292 65.5682 173.591 65.4659C173.889 65.3594 174.147 65.2017 174.364 64.9929C174.581 64.7841 174.748 64.5263 174.863 64.2195L176.672 64.5455C176.527 65.0781 176.267 65.5447 175.892 65.9453C175.521 66.3416 175.055 66.6506 174.492 66.8722C173.934 67.0895 173.297 67.1982 172.581 67.1982ZM186.271 59.5788L184.539 59.8857C184.466 59.6641 184.351 59.4531 184.194 59.2528C184.04 59.0526 183.831 58.8885 183.567 58.7607C183.303 58.6328 182.973 58.5689 182.576 58.5689C182.035 58.5689 181.583 58.6903 181.221 58.9332C180.859 59.1719 180.678 59.4808 180.678 59.8601C180.678 60.1882 180.799 60.4524 181.042 60.6527C181.285 60.853 181.677 61.017 182.218 61.1449L183.778 61.5028C184.681 61.7116 185.355 62.0334 185.798 62.468C186.241 62.9027 186.463 63.4673 186.463 64.1619C186.463 64.75 186.292 65.2741 185.951 65.7344C185.615 66.1903 185.144 66.5483 184.539 66.8082C183.938 67.0682 183.241 67.1982 182.449 67.1982C181.349 67.1982 180.452 66.9638 179.757 66.495C179.063 66.022 178.637 65.3509 178.479 64.4815L180.326 64.2003C180.441 64.6818 180.678 65.0462 181.036 65.2933C181.394 65.5362 181.86 65.6577 182.436 65.6577C183.062 65.6577 183.563 65.5277 183.938 65.2678C184.313 65.0036 184.5 64.6818 184.5 64.3026C184.5 63.9957 184.385 63.7379 184.155 63.5291C183.929 63.3203 183.582 63.1626 183.113 63.0561L181.451 62.6918C180.535 62.483 179.858 62.1506 179.419 61.6946C178.984 61.2386 178.767 60.6612 178.767 59.9624C178.767 59.3828 178.929 58.8757 179.252 58.4411C179.576 58.0064 180.024 57.6676 180.595 57.4247C181.166 57.1776 181.82 57.054 182.557 57.054C183.618 57.054 184.453 57.2841 185.063 57.7443C185.672 58.2003 186.075 58.8118 186.271 59.5788ZM195.921 59.5788L194.189 59.8857C194.117 59.6641 194.002 59.4531 193.844 59.2528C193.691 59.0526 193.482 58.8885 193.218 58.7607C192.953 58.6328 192.623 58.5689 192.227 58.5689C191.686 58.5689 191.234 58.6903 190.872 58.9332C190.509 59.1719 190.328 59.4808 190.328 59.8601C190.328 60.1882 190.45 60.4524 190.693 60.6527C190.936 60.853 191.328 61.017 191.869 61.1449L193.428 61.5028C194.332 61.7116 195.005 62.0334 195.448 62.468C195.892 62.9027 196.113 63.4673 196.113 64.1619C196.113 64.75 195.943 65.2741 195.602 65.7344C195.265 66.1903 194.794 66.5483 194.189 66.8082C193.588 67.0682 192.892 67.1982 192.099 67.1982C190.999 67.1982 190.102 66.9638 189.408 66.495C188.713 66.022 188.287 65.3509 188.129 64.4815L189.977 64.2003C190.092 64.6818 190.328 65.0462 190.686 65.2933C191.044 65.5362 191.511 65.6577 192.086 65.6577C192.713 65.6577 193.213 65.5277 193.588 65.2678C193.963 65.0036 194.151 64.6818 194.151 64.3026C194.151 63.9957 194.036 63.7379 193.806 63.5291C193.58 63.3203 193.232 63.1626 192.764 63.0561L191.102 62.6918C190.186 62.483 189.508 62.1506 189.069 61.6946C188.634 61.2386 188.417 60.6612 188.417 59.9624C188.417 59.3828 188.579 58.8757 188.903 58.4411C189.227 58.0064 189.674 57.6676 190.245 57.4247C190.816 57.1776 191.47 57.054 192.208 57.054C193.269 57.054 194.104 57.2841 194.713 57.7443C195.323 58.2003 195.725 58.8118 195.921 59.5788ZM202.887 57.1818V58.7159H197.339V57.1818H202.887ZM198.86 67V56.044C198.86 55.4304 198.994 54.9212 199.263 54.5163C199.531 54.1072 199.887 53.8026 200.33 53.6023C200.773 53.3977 201.255 53.2955 201.775 53.2955C202.158 53.2955 202.487 53.3274 202.759 53.3913C203.032 53.451 203.234 53.5064 203.366 53.5575L202.919 55.1044C202.83 55.0788 202.714 55.049 202.574 55.0149C202.433 54.9766 202.263 54.9574 202.062 54.9574C201.598 54.9574 201.266 55.0724 201.065 55.3026C200.869 55.5327 200.771 55.8651 200.771 56.2997V67H198.86ZM211.078 62.9283V57.1818H212.996V67H211.117V65.2997H211.015C210.789 65.8239 210.426 66.2607 209.928 66.6101C209.434 66.9553 208.818 67.1278 208.081 67.1278C207.45 67.1278 206.892 66.9893 206.406 66.7124C205.924 66.4311 205.545 66.0156 205.268 65.4659C204.995 64.9162 204.859 64.2365 204.859 63.4268V57.1818H206.77V63.1967C206.77 63.8658 206.956 64.3984 207.326 64.7947C207.697 65.1911 208.179 65.3892 208.771 65.3892C209.129 65.3892 209.485 65.2997 209.838 65.1207C210.196 64.9418 210.493 64.6712 210.727 64.3089C210.966 63.9467 211.083 63.4865 211.078 62.9283ZM217.475 53.9091V67H215.564V53.9091H217.475ZM221.958 53.9091V67H220.047V53.9091H221.958ZM225.737 70.6818C225.452 70.6818 225.192 70.6584 224.957 70.6115C224.723 70.5689 224.548 70.522 224.433 70.4709L224.893 68.9048C225.243 68.9986 225.554 69.0391 225.827 69.0263C226.099 69.0135 226.34 68.9112 226.549 68.7195C226.762 68.5277 226.949 68.2145 227.111 67.7798L227.348 67.1278L223.756 57.1818H225.801L228.287 64.8011H228.39L230.876 57.1818H232.928L228.882 68.3104C228.694 68.8217 228.456 69.2543 228.166 69.608C227.876 69.9659 227.531 70.2344 227.131 70.4134C226.73 70.5923 226.265 70.6818 225.737 70.6818ZM240.747 67H238.651L243.362 53.9091H245.643L250.354 67H248.258L244.557 56.2869H244.455L240.747 67ZM241.099 61.8736H247.9V63.5355H241.099V61.8736ZM255.609 67.1918C254.816 67.1918 254.109 66.9893 253.487 66.5845C252.869 66.1754 252.383 65.5937 252.029 64.8395C251.68 64.081 251.505 63.1712 251.505 62.1101C251.505 61.049 251.682 60.1413 252.036 59.3871C252.393 58.6328 252.884 58.0554 253.506 57.6548C254.128 57.2543 254.833 57.054 255.621 57.054C256.231 57.054 256.721 57.1562 257.092 57.3608C257.467 57.5611 257.756 57.7955 257.961 58.0639C258.17 58.3324 258.332 58.5689 258.447 58.7734H258.562V53.9091H260.473V67H258.607V65.4723H258.447C258.332 65.6811 258.165 65.9197 257.948 66.1882C257.735 66.4567 257.441 66.6911 257.066 66.8913C256.691 67.0916 256.205 67.1918 255.609 67.1918ZM256.031 65.5618C256.58 65.5618 257.045 65.4169 257.424 65.1271C257.808 64.8331 258.097 64.4261 258.293 63.9062C258.494 63.3864 258.594 62.7812 258.594 62.0909C258.594 61.4091 258.496 60.8125 258.3 60.3011C258.104 59.7898 257.816 59.3913 257.437 59.1058C257.058 58.8203 256.589 58.6776 256.031 58.6776C255.455 58.6776 254.976 58.8267 254.592 59.125C254.209 59.4233 253.919 59.8303 253.723 60.3459C253.531 60.8615 253.435 61.4432 253.435 62.0909C253.435 62.7472 253.533 63.3374 253.729 63.8615C253.925 64.3857 254.215 64.8011 254.599 65.108C254.987 65.4105 255.464 65.5618 256.031 65.5618ZM266.876 67.1918C266.084 67.1918 265.376 66.9893 264.754 66.5845C264.136 66.1754 263.65 65.5937 263.297 64.8395C262.947 64.081 262.773 63.1712 262.773 62.1101C262.773 61.049 262.949 60.1413 263.303 59.3871C263.661 58.6328 264.151 58.0554 264.773 57.6548C265.395 57.2543 266.101 57.054 266.889 57.054C267.498 57.054 267.988 57.1562 268.359 57.3608C268.734 57.5611 269.024 57.7955 269.229 58.0639C269.437 58.3324 269.599 58.5689 269.714 58.7734H269.829V53.9091H271.741V67H269.874V65.4723H269.714C269.599 65.6811 269.433 65.9197 269.216 66.1882C269.003 66.4567 268.709 66.6911 268.334 66.8913C267.959 67.0916 267.473 67.1918 266.876 67.1918ZM267.298 65.5618C267.848 65.5618 268.312 65.4169 268.692 65.1271C269.075 64.8331 269.365 64.4261 269.561 63.9062C269.761 63.3864 269.861 62.7812 269.861 62.0909C269.861 61.4091 269.763 60.8125 269.567 60.3011C269.371 59.7898 269.084 59.3913 268.704 59.1058C268.325 58.8203 267.856 58.6776 267.298 58.6776C266.723 58.6776 266.243 58.8267 265.86 59.125C265.476 59.4233 265.187 59.8303 264.991 60.3459C264.799 60.8615 264.703 61.4432 264.703 62.0909C264.703 62.7472 264.801 63.3374 264.997 63.8615C265.193 64.3857 265.483 64.8011 265.866 65.108C266.254 65.4105 266.731 65.5618 267.298 65.5618ZM278.7 67.1982C277.733 67.1982 276.9 66.9915 276.201 66.5781C275.506 66.1605 274.969 65.5746 274.59 64.8203C274.215 64.0618 274.027 63.1733 274.027 62.1548C274.027 61.1491 274.215 60.2628 274.59 59.4957C274.969 58.7287 275.498 58.13 276.175 57.6996C276.857 57.2692 277.654 57.054 278.566 57.054C279.12 57.054 279.657 57.1456 280.176 57.3288C280.696 57.5121 281.163 57.7997 281.576 58.1918C281.99 58.5838 282.316 59.093 282.554 59.7195C282.793 60.3416 282.912 61.098 282.912 61.9886V62.6662H275.108V61.2344H281.039C281.039 60.7315 280.937 60.2862 280.733 59.8984C280.528 59.5064 280.24 59.1974 279.87 58.9716C279.503 58.7457 279.073 58.6328 278.578 58.6328C278.042 58.6328 277.573 58.7649 277.172 59.0291C276.776 59.2891 276.469 59.63 276.252 60.0518C276.039 60.4695 275.932 60.9233 275.932 61.4134V62.532C275.932 63.1882 276.047 63.7464 276.277 64.2067C276.512 64.6669 276.838 65.0185 277.255 65.2614C277.673 65.5 278.161 65.6193 278.719 65.6193C279.081 65.6193 279.412 65.5682 279.71 65.4659C280.008 65.3594 280.266 65.2017 280.483 64.9929C280.701 64.7841 280.867 64.5263 280.982 64.2195L282.791 64.5455C282.646 65.0781 282.386 65.5447 282.011 65.9453C281.64 66.3416 281.174 66.6506 280.611 66.8722C280.053 67.0895 279.416 67.1982 278.7 67.1982ZM288.708 67.1918C287.916 67.1918 287.208 66.9893 286.586 66.5845C285.968 66.1754 285.482 65.5937 285.129 64.8395C284.779 64.081 284.605 63.1712 284.605 62.1101C284.605 61.049 284.781 60.1413 285.135 59.3871C285.493 58.6328 285.983 58.0554 286.605 57.6548C287.227 57.2543 287.933 57.054 288.721 57.054C289.33 57.054 289.82 57.1562 290.191 57.3608C290.566 57.5611 290.856 57.7955 291.061 58.0639C291.269 58.3324 291.431 58.5689 291.546 58.7734H291.661V53.9091H293.573V67H291.706V65.4723H291.546C291.431 65.6811 291.265 65.9197 291.048 66.1882C290.835 66.4567 290.541 66.6911 290.166 66.8913C289.791 67.0916 289.305 67.1918 288.708 67.1918ZM289.13 65.5618C289.68 65.5618 290.144 65.4169 290.524 65.1271C290.907 64.8331 291.197 64.4261 291.393 63.9062C291.593 63.3864 291.693 62.7812 291.693 62.0909C291.693 61.4091 291.595 60.8125 291.399 60.3011C291.203 59.7898 290.916 59.3913 290.536 59.1058C290.157 58.8203 289.688 58.6776 289.13 58.6776C288.555 58.6776 288.075 58.8267 287.692 59.125C287.308 59.4233 287.019 59.8303 286.823 60.3459C286.631 60.8615 286.535 61.4432 286.535 62.0909C286.535 62.7472 286.633 63.3374 286.829 63.8615C287.025 64.3857 287.315 64.8011 287.698 65.108C288.086 65.4105 288.563 65.5618 289.13 65.5618ZM305.647 57.1818V58.7159H300.284V57.1818H305.647ZM301.722 54.8295H303.634V64.1172C303.634 64.4879 303.689 64.767 303.8 64.9545C303.911 65.1378 304.053 65.2635 304.228 65.3317C304.407 65.3956 304.601 65.4276 304.81 65.4276C304.963 65.4276 305.097 65.4169 305.213 65.3956C305.328 65.3743 305.417 65.3572 305.481 65.3445L305.826 66.9233C305.715 66.9659 305.558 67.0085 305.353 67.0511C305.149 67.098 304.893 67.1236 304.586 67.1278C304.083 67.1364 303.615 67.0469 303.18 66.8594C302.745 66.6719 302.394 66.3821 302.125 65.9901C301.857 65.598 301.722 65.1058 301.722 64.5135V54.8295ZM311.792 67.1982C310.871 67.1982 310.068 66.9872 309.382 66.5653C308.696 66.1435 308.163 65.5533 307.784 64.7947C307.404 64.0362 307.215 63.1499 307.215 62.1357C307.215 61.1172 307.404 60.2266 307.784 59.4638C308.163 58.701 308.696 58.1087 309.382 57.6868C310.068 57.2649 310.871 57.054 311.792 57.054C312.712 57.054 313.515 57.2649 314.201 57.6868C314.887 58.1087 315.42 58.701 315.799 59.4638C316.179 60.2266 316.368 61.1172 316.368 62.1357C316.368 63.1499 316.179 64.0362 315.799 64.7947C315.42 65.5533 314.887 66.1435 314.201 66.5653C313.515 66.9872 312.712 67.1982 311.792 67.1982ZM311.798 65.5938C312.395 65.5938 312.889 65.4361 313.281 65.1207C313.673 64.8054 313.963 64.3857 314.15 63.8615C314.342 63.3374 314.438 62.7599 314.438 62.1293C314.438 61.5028 314.342 60.9276 314.15 60.4034C313.963 59.875 313.673 59.451 313.281 59.1314C312.889 58.8118 312.395 58.652 311.798 58.652C311.197 58.652 310.699 58.8118 310.302 59.1314C309.91 59.451 309.618 59.875 309.426 60.4034C309.239 60.9276 309.145 61.5028 309.145 62.1293C309.145 62.7599 309.239 63.3374 309.426 63.8615C309.618 64.3857 309.91 64.8054 310.302 65.1207C310.699 65.4361 311.197 65.5938 311.798 65.5938ZM334.292 58.1662H332.297C332.221 57.7401 332.078 57.3651 331.869 57.0412C331.66 56.7173 331.404 56.4425 331.102 56.2166C330.799 55.9908 330.461 55.8203 330.086 55.7053C329.715 55.5902 329.321 55.5327 328.903 55.5327C328.149 55.5327 327.473 55.7223 326.877 56.1016C326.284 56.4808 325.816 57.0369 325.471 57.7699C325.13 58.5028 324.959 59.3977 324.959 60.4545C324.959 61.5199 325.13 62.419 325.471 63.152C325.816 63.8849 326.287 64.4389 326.883 64.8139C327.48 65.1889 328.151 65.3764 328.897 65.3764C329.31 65.3764 329.702 65.321 330.073 65.2102C330.448 65.0952 330.787 64.9268 331.089 64.7053C331.392 64.4837 331.647 64.2131 331.856 63.8935C332.069 63.5696 332.216 63.1989 332.297 62.7812L334.292 62.7876C334.185 63.4311 333.978 64.0234 333.672 64.5646C333.369 65.1016 332.979 65.5661 332.502 65.9581C332.029 66.3459 331.488 66.6463 330.878 66.8594C330.269 67.0724 329.604 67.179 328.884 67.179C327.75 67.179 326.74 66.9105 325.854 66.3736C324.968 65.8324 324.269 65.0589 323.757 64.0533C323.25 63.0476 322.997 61.848 322.997 60.4545C322.997 59.0568 323.252 57.8572 323.764 56.8558C324.275 55.8501 324.974 55.0788 325.86 54.5419C326.747 54.0007 327.755 53.7301 328.884 53.7301C329.578 53.7301 330.226 53.8303 330.827 54.0305C331.432 54.2266 331.975 54.5163 332.457 54.8999C332.939 55.2791 333.337 55.7436 333.652 56.2933C333.968 56.8388 334.181 57.4631 334.292 58.1662ZM339.359 67.2173C338.737 67.2173 338.174 67.1023 337.671 66.8722C337.169 66.6378 336.77 66.299 336.476 65.8558C336.186 65.4126 336.041 64.8693 336.041 64.2259C336.041 63.6719 336.148 63.2159 336.361 62.858C336.574 62.5 336.862 62.2166 337.224 62.0078C337.586 61.799 337.991 61.6413 338.438 61.5348C338.886 61.4283 339.342 61.3473 339.806 61.2919C340.394 61.2237 340.872 61.1683 341.238 61.1257C341.605 61.0788 341.871 61.0043 342.037 60.902C342.203 60.7997 342.286 60.6335 342.286 60.4034V60.3587C342.286 59.8004 342.129 59.3679 341.813 59.0611C341.502 58.7543 341.038 58.6009 340.42 58.6009C339.776 58.6009 339.269 58.7436 338.899 59.0291C338.532 59.3104 338.279 59.6236 338.138 59.9688L336.342 59.5597C336.555 58.9631 336.866 58.4815 337.275 58.1151C337.688 57.7443 338.164 57.4759 338.7 57.3097C339.237 57.1392 339.802 57.054 340.394 57.054C340.786 57.054 341.202 57.1009 341.641 57.1946C342.084 57.2841 342.497 57.4503 342.881 57.6932C343.269 57.9361 343.586 58.2834 343.833 58.7351C344.08 59.1825 344.204 59.7642 344.204 60.4801V67H342.338V65.6577H342.261C342.137 65.9048 341.952 66.1477 341.705 66.3864C341.458 66.625 341.14 66.8232 340.752 66.9808C340.365 67.1385 339.9 67.2173 339.359 67.2173ZM339.774 65.6832C340.303 65.6832 340.754 65.5788 341.129 65.37C341.509 65.1612 341.796 64.8885 341.992 64.5518C342.193 64.2109 342.293 63.8466 342.293 63.4588V62.1932C342.225 62.2614 342.093 62.3253 341.896 62.3849C341.705 62.4403 341.485 62.4893 341.238 62.532C340.991 62.5703 340.75 62.6065 340.516 62.6406C340.281 62.6705 340.085 62.696 339.928 62.7173C339.557 62.7642 339.218 62.843 338.911 62.9538C338.609 63.0646 338.366 63.2244 338.183 63.4332C338.004 63.6378 337.914 63.9105 337.914 64.2514C337.914 64.7244 338.089 65.0824 338.438 65.3253C338.788 65.5639 339.233 65.6832 339.774 65.6832ZM346.75 67V57.1818H348.597V58.7415H348.699C348.878 58.2131 349.194 57.7976 349.645 57.495C350.101 57.1882 350.617 57.0348 351.192 57.0348C351.311 57.0348 351.452 57.0391 351.614 57.0476C351.78 57.0561 351.91 57.0668 352.004 57.0795V58.9077C351.927 58.8864 351.791 58.8629 351.595 58.8374C351.399 58.8075 351.203 58.7926 351.007 58.7926C350.555 58.7926 350.152 58.8885 349.799 59.0803C349.449 59.2678 349.172 59.5298 348.968 59.8665C348.763 60.1989 348.661 60.5781 348.661 61.0043V67H346.75ZM358.821 57.1818V58.7159H353.458V57.1818H358.821ZM354.896 54.8295H356.808V64.1172C356.808 64.4879 356.863 64.767 356.974 64.9545C357.085 65.1378 357.227 65.2635 357.402 65.3317C357.581 65.3956 357.775 65.4276 357.984 65.4276C358.137 65.4276 358.271 65.4169 358.386 65.3956C358.501 65.3743 358.591 65.3572 358.655 65.3445L359 66.9233C358.889 66.9659 358.732 67.0085 358.527 67.0511C358.322 67.098 358.067 67.1236 357.76 67.1278C357.257 67.1364 356.788 67.0469 356.354 66.8594C355.919 66.6719 355.567 66.3821 355.299 65.9901C355.031 65.598 354.896 65.1058 354.896 64.5135V54.8295Z" fill="black"/>
</g>
<defs>
<filter id="filter0_dd_313_12727" x="0" y="0" width="422" height="136" filterUnits="userSpaceOnUse" color-interpolation-filters="sRGB">
<feFlood flood-opacity="0" result="BackgroundImageFix"/>
<feColorMatrix in="SourceAlpha" type="matrix" values="0 0 0 0 0 0 0 0 0 0 0 0 0 0 0 0 0 0 127 0" result="hardAlpha"/>
<feOffset dx="4" dy="8"/>
<feGaussianBlur stdDeviation="17"/>
<feComposite in2="hardAlpha" operator="out"/>
<feColorMatrix type="matrix" values="0 0 0 0 0 0 0 0 0 0 0 0 0 0 0 0 0 0 0.08 0"/>
<feBlend mode="normal" in2="BackgroundImageFix" result="effect1_dropShadow_313_12727"/>
<feColorMatrix in="SourceAlpha" type="matrix" values="0 0 0 0 0 0 0 0 0 0 0 0 0 0 0 0 0 0 127 0" result="hardAlpha"/>
<feOffset dx="-4" dy="8"/>
<feGaussianBlur stdDeviation="17"/>
<feComposite in2="hardAlpha" operator="out"/>
<feColorMatrix type="matrix" values="0 0 0 0 0 0 0 0 0 0 0 0 0 0 0 0 0 0 0.04 0"/>
<feBlend mode="normal" in2="effect1_dropShadow_313_12727" result="effect2_dropShadow_313_12727"/>
<feBlend mode="normal" in="SourceGraphic" in2="effect2_dropShadow_313_12727" result="shape"/>
</filter>
</defs>
</svg>
