<svg width="44" height="44" viewBox="0 0 44 44" fill="none" xmlns="http://www.w3.org/2000/svg">
<rect width="44" height="44" rx="4" fill="#077929"/>
<path d="M26.6875 13.75C24.7516 13.75 23.0566 14.5825 22 15.9897C20.9434 14.5825 19.2484 13.75 17.3125 13.75C15.7715 13.7517 14.294 14.3647 13.2044 15.4544C12.1147 16.544 11.5017 18.0215 11.5 19.5625C11.5 26.125 21.2303 31.4369 21.6447 31.6562C21.7539 31.715 21.876 31.7458 22 31.7458C22.124 31.7458 22.2461 31.715 22.3553 31.6562C22.7697 31.4369 32.5 26.125 32.5 19.5625C32.4983 18.0215 31.8853 16.544 30.7956 15.4544C29.706 14.3647 28.2285 13.7517 26.6875 13.75ZM22 30.1375C20.2881 29.14 13 24.5959 13 19.5625C13.0015 18.4192 13.4563 17.3232 14.2647 16.5147C15.0732 15.7063 16.1692 15.2515 17.3125 15.25C19.1359 15.25 20.6669 16.2213 21.3062 17.7812C21.3628 17.9188 21.4589 18.0365 21.5824 18.1193C21.7059 18.2021 21.8513 18.2463 22 18.2463C22.1487 18.2463 22.2941 18.2021 22.4176 18.1193C22.5411 18.0365 22.6372 17.9188 22.6937 17.7812C23.3331 16.2184 24.8641 15.25 26.6875 15.25C27.8308 15.2515 28.9268 15.7063 29.7353 16.5147C30.5437 17.3232 30.9985 18.4192 31 19.5625C31 24.5884 23.71 29.1391 22 30.1375Z" fill="white"/>
</svg>
