<svg width="25" height="24" viewBox="0 0 25 24" fill="none" xmlns="http://www.w3.org/2000/svg">
<path d="M22.1973 20.4693L17.5033 15.7762C18.8638 14.1428 19.5422 12.0478 19.3974 9.92691C19.2526 7.80604 18.2958 5.82265 16.7259 4.38932C15.1559 2.95599 13.0939 2.18308 10.9686 2.23138C8.84338 2.27968 6.81856 3.14547 5.31539 4.64864C3.81222 6.15181 2.94643 8.17663 2.89813 10.3019C2.84983 12.4271 3.62274 14.4892 5.05607 16.0591C6.4894 17.629 8.47279 18.5859 10.5937 18.7307C12.7145 18.8755 14.8096 18.1971 16.443 16.8365L21.1361 21.5306C21.2058 21.6003 21.2885 21.6556 21.3795 21.6933C21.4706 21.731 21.5682 21.7504 21.6667 21.7504C21.7653 21.7504 21.8628 21.731 21.9539 21.6933C22.0449 21.6556 22.1277 21.6003 22.1973 21.5306C22.267 21.4609 22.3223 21.3782 22.36 21.2871C22.3977 21.1961 22.4171 21.0985 22.4171 21C22.4171 20.9014 22.3977 20.8038 22.36 20.7128C22.3223 20.6218 22.267 20.539 22.1973 20.4693ZM4.41672 10.5C4.41672 9.16495 4.8126 7.8599 5.5543 6.74987C6.296 5.63984 7.3502 4.77467 8.5836 4.26378C9.81701 3.75289 11.1742 3.61922 12.4836 3.87967C13.7929 4.14012 14.9957 4.78299 15.9397 5.727C16.8837 6.671 17.5266 7.87374 17.787 9.18311C18.0475 10.4925 17.9138 11.8497 17.4029 13.0831C16.892 14.3165 16.0268 15.3707 14.9168 16.1124C13.8068 16.8541 12.5017 17.25 11.1667 17.25C9.37712 17.248 7.66138 16.5362 6.39594 15.2708C5.1305 14.0053 4.4187 12.2896 4.41672 10.5Z" fill="black"/>
</svg>
