<svg width="22" height="19" viewBox="0 0 22 19" fill="none" xmlns="http://www.w3.org/2000/svg">
<path d="M21.4571 0.455384C21.3409 0.355042 21.1995 0.288308 21.0482 0.262371C20.8969 0.236435 20.7414 0.252279 20.5984 0.308197L1.599 7.74351C1.32974 7.84821 1.10177 8.03756 0.949431 8.28303C0.797088 8.52851 0.728611 8.81683 0.754309 9.10459C0.780008 9.39235 0.898491 9.66397 1.09192 9.87857C1.28535 10.0932 1.54326 10.2391 1.82681 10.2944L6.74963 11.261V16.7501C6.74866 17.0491 6.83751 17.3414 7.00467 17.5893C7.17182 17.8372 7.40958 18.0292 7.68713 18.1404C7.96424 18.2535 8.269 18.2807 8.56176 18.2183C8.85452 18.156 9.12175 18.007 9.32869 17.7907L11.7024 15.3288L15.4684 18.6251C15.7401 18.8661 16.0905 18.9994 16.4537 19.0001C16.6128 18.9999 16.771 18.975 16.9224 18.926C17.1699 18.8475 17.3925 18.7055 17.568 18.5142C17.7435 18.3229 17.8658 18.089 17.9228 17.8357L21.7281 1.28132C21.7621 1.13202 21.7549 0.976279 21.7071 0.830779C21.6594 0.685279 21.573 0.555511 21.4571 0.455384ZM15.7253 3.83038L7.32619 9.84538L2.67619 8.9332L15.7253 3.83038ZM8.24963 16.7501V12.2988L10.5737 14.3369L8.24963 16.7501ZM16.4556 17.5001L8.70431 10.7032L19.8606 2.70726L16.4556 17.5001Z" fill="black"/>
</svg>
