<svg width="16" height="17" viewBox="0 0 16 17" fill="none" xmlns="http://www.w3.org/2000/svg">
<path d="M14.6431 7.67815L11.8306 10.105L12.6875 13.7344C12.7347 13.9314 12.7226 14.138 12.6525 14.3281C12.5824 14.5182 12.4575 14.6833 12.2937 14.8025C12.1298 14.9217 11.9343 14.9896 11.7319 14.9977C11.5294 15.0059 11.3291 14.9538 11.1562 14.8481L7.99996 12.9056L4.84184 14.8481C4.66898 14.9532 4.4689 15.0048 4.2668 14.9963C4.06469 14.9879 3.8696 14.9199 3.70609 14.8008C3.54257 14.6817 3.41795 14.5169 3.3479 14.3272C3.27786 14.1374 3.26553 13.9312 3.31246 13.7344L4.17246 10.105L1.35996 7.67815C1.20702 7.54597 1.09641 7.37166 1.04195 7.17699C0.987486 6.98232 0.99158 6.77592 1.05372 6.58356C1.11586 6.39121 1.23329 6.22142 1.39135 6.09541C1.54941 5.9694 1.7411 5.89274 1.94246 5.87502L5.62996 5.57752L7.05246 2.13502C7.12946 1.94741 7.2605 1.78693 7.42894 1.67398C7.59738 1.56104 7.7956 1.50073 7.9984 1.50073C8.2012 1.50073 8.39942 1.56104 8.56785 1.67398C8.73629 1.78693 8.86734 1.94741 8.94434 2.13502L10.3662 5.57752L14.0537 5.87502C14.2555 5.89209 14.4477 5.96831 14.6064 6.09415C14.765 6.21999 14.883 6.38984 14.9455 6.58243C15.008 6.77502 15.0123 6.98178 14.9579 7.1768C14.9034 7.37183 14.7926 7.54644 14.6393 7.67877L14.6431 7.67815Z" fill="#FCD538"/>
</svg>
