<svg width="18" height="19" viewBox="0 0 18 19" fill="none" xmlns="http://www.w3.org/2000/svg">
<path d="M17.133 16.8478L11.2643 7.62469L17.0552 1.25438C17.1862 1.10674 17.2537 0.913434 17.2431 0.716365C17.2325 0.519295 17.1446 0.334346 16.9986 0.201615C16.8525 0.0688843 16.66 -0.00092985 16.4628 0.00730857C16.2657 0.015547 16.0797 0.101174 15.9452 0.245625L10.4289 6.31312L6.633 0.347813C6.56531 0.24127 6.47183 0.153535 6.36121 0.0927355C6.25059 0.0319361 6.12642 3.91221e-05 6.00019 8.87202e-08H1.50019C1.36571 -6.53095e-05 1.2337 0.0360256 1.11796 0.104494C1.00222 0.172962 0.907019 0.271288 0.842323 0.389177C0.777628 0.507066 0.745819 0.64018 0.750227 0.774582C0.754634 0.908984 0.795096 1.03973 0.867376 1.15313L6.73613 10.3753L0.945189 16.7503C0.877564 16.823 0.825029 16.9083 0.79063 17.0014C0.756231 17.0945 0.740651 17.1935 0.744794 17.2927C0.748937 17.3918 0.772721 17.4892 0.814766 17.5791C0.856811 17.669 0.916281 17.7496 0.989729 17.8164C1.06318 17.8831 1.14915 17.9346 1.24265 17.9679C1.33615 18.0012 1.43533 18.0156 1.53443 18.0103C1.63354 18.0049 1.7306 17.98 1.81999 17.9369C1.90938 17.8937 1.98932 17.8333 2.05519 17.7591L7.57144 11.6916L11.3674 17.6569C11.4356 17.7625 11.5293 17.8494 11.6399 17.9093C11.7505 17.9693 11.8744 18.0005 12.0002 18H16.5002C16.6345 18 16.7664 17.9638 16.882 17.8954C16.9976 17.827 17.0927 17.7288 17.1573 17.611C17.222 17.4933 17.2539 17.3604 17.2496 17.2261C17.2453 17.0918 17.205 16.9612 17.133 16.8478ZM12.4118 16.5L2.86613 1.5H5.58488L15.1343 16.5H12.4118Z" fill="black"/>
</svg>
